<svg xmlns="http://www.w3.org/2000/svg" xmlns:xlink="http://www.w3.org/1999/xlink" width="24" height="24" viewBox="0 0 24 24"><path fill="currentColor" d="M6.825 12.87c0-.14.064-.29.191-.45l6.677-7.988c.123-.15.255-.242.397-.275a.544.544 0 0 1 .39.042a.46.46 0 0 1 .242.282c.049.131.036.286-.037.465l-2.19 5.7h4.151a.53.53 0 0 1 .382.141c.098.09.147.202.147.338c0 .146-.064.296-.191.45l-6.677 7.996a.746.746 0 0 1-.404.268a.526.526 0 0 1-.39-.036a.491.491 0 0 1-.242-.281c-.044-.131-.03-.289.044-.472l2.19-5.7H7.353a.545.545 0 0 1-.382-.134a.46.46 0 0 1-.147-.345Z"/></svg>