<svg xmlns="http://www.w3.org/2000/svg" xmlns:xlink="http://www.w3.org/1999/xlink" width="24" height="24" viewBox="2 2 20 20"><path fill="currentColor" d="M6.643 12.894c0-.155.066-.315.198-.48l6.876-8.152c.133-.16.275-.257.427-.29a.609.609 0 0 1 .411.043a.51.51 0 0 1 .258.303c.049.137.034.3-.044.487l-2.236 5.788h4.258a.56.56 0 0 1 .404.149a.465.465 0 0 1 .162.367c0 .155-.066.313-.198.473l-6.876 8.16c-.133.154-.275.249-.427.282a.583.583 0 0 1-.411-.036a.51.51 0 0 1-.258-.303c-.049-.137-.034-.301.044-.494l2.236-5.788H7.209a.604.604 0 0 1-.412-.142a.489.489 0 0 1-.154-.367Z"/></svg>
