<svg xmlns="http://www.w3.org/2000/svg" xmlns:xlink="http://www.w3.org/1999/xlink" width="24" height="24" viewBox="2 2 20 20"><path fill="currentColor" d="M12 19.969a7.617 7.617 0 0 0 3.07-.625a8.133 8.133 0 0 0 2.547-1.727a8.159 8.159 0 0 0 1.727-2.539c.416-.963.625-1.99.625-3.078a7.617 7.617 0 0 0-.625-3.07a8.133 8.133 0 0 0-1.727-2.547a8.133 8.133 0 0 0-2.547-1.727a7.671 7.671 0 0 0-3.078-.625a7.671 7.671 0 0 0-3.078.625a8.159 8.159 0 0 0-2.539 1.727A8.2 8.2 0 0 0 4.656 8.93A7.616 7.616 0 0 0 4.031 12c0 1.088.209 2.115.625 3.078a8.159 8.159 0 0 0 1.727 2.54a8.159 8.159 0 0 0 2.539 1.726c.963.416 1.99.625 3.078.625Zm0-1.328a6.494 6.494 0 0 1-2.586-.516a6.76 6.76 0 0 1-2.117-1.422a6.759 6.759 0 0 1-1.422-2.117A6.58 6.58 0 0 1 5.367 12c0-.922.17-1.784.508-2.586a6.76 6.76 0 0 1 1.422-2.117a6.498 6.498 0 0 1 2.11-1.422a6.494 6.494 0 0 1 2.585-.516a6.49 6.49 0 0 1 2.586.516a6.587 6.587 0 0 1 2.117 1.422a6.695 6.695 0 0 1 1.43 2.117A6.49 6.49 0 0 1 18.641 12a6.49 6.49 0 0 1-.516 2.586a6.585 6.585 0 0 1-1.422 2.117a6.642 6.642 0 0 1-2.117 1.422a6.493 6.493 0 0 1-2.586.516Zm-3.43-6.11c0 .1.034.18.102.242a.384.384 0 0 0 .258.094h2.648l-1.414 3.797c-.062.167-.06.302.008.406a.37.37 0 0 0 .305.164c.13.006.25-.06.359-.195l4.281-5.375a.477.477 0 0 0 .133-.305a.304.304 0 0 0-.11-.242a.34.34 0 0 0-.25-.101h-2.648l1.414-3.797c.063-.167.057-.302-.015-.407a.332.332 0 0 0-.297-.156c-.13-.005-.25.06-.36.196l-4.28 5.375a.456.456 0 0 0-.134.304Z"/></svg>
