<svg viewBox="3 3 17 17" fill="none" xmlns="http://www.w3.org/2000/svg">
<path d="M11.9688 19.9375C13.0573 19.9375 14.0807 19.7292 15.0391 19.3125C16.0026 18.8958 16.8516 18.3203 17.5859 17.5859C18.3203 16.8516 18.8958 16.0052 19.3125 15.0469C19.7292 14.0833 19.9375 13.0573 19.9375 11.9688C19.9375 10.8802 19.7292 9.85677 19.3125 8.89844C18.8958 7.9349 18.3203 7.08594 17.5859 6.35156C16.8516 5.61719 16.0026 5.04167 15.0391 4.625C14.0755 4.20833 13.0495 4 11.9609 4C10.8724 4 9.84635 4.20833 8.88281 4.625C7.92448 5.04167 7.07812 5.61719 6.34375 6.35156C5.61458 7.08594 5.04167 7.9349 4.625 8.89844C4.20833 9.85677 4 10.8802 4 11.9688C4 13.0573 4.20833 14.0833 4.625 15.0469C5.04167 16.0052 5.61719 16.8516 6.35156 17.5859C7.08594 18.3203 7.93229 18.8958 8.89062 19.3125C9.85417 19.7292 10.8802 19.9375 11.9688 19.9375ZM11.9688 18.6094C11.0469 18.6094 10.1849 18.4375 9.38281 18.0938C8.58073 17.75 7.875 17.276 7.26562 16.6719C6.66146 16.0625 6.1875 15.3568 5.84375 14.5547C5.50521 13.7526 5.33594 12.8906 5.33594 11.9688C5.33594 11.0469 5.50521 10.1849 5.84375 9.38281C6.1875 8.58073 6.66146 7.875 7.26562 7.26562C7.86979 6.65625 8.57292 6.18229 9.375 5.84375C10.1771 5.5 11.0391 5.32812 11.9609 5.32812C12.8828 5.32812 13.7448 5.5 14.5469 5.84375C15.3542 6.18229 16.0599 6.65625 16.6641 7.26562C17.2734 7.875 17.75 8.58073 18.0938 9.38281C18.4375 10.1849 18.6094 11.0469 18.6094 11.9688C18.6094 12.8906 18.4375 13.7526 18.0938 14.5547C17.7552 15.3568 17.2812 16.0625 16.6719 16.6719C16.0625 17.276 15.3568 17.75 14.5547 18.0938C13.7526 18.4375 12.8906 18.6094 11.9688 18.6094ZM9.39062 15.6484C9.53125 15.6484 9.65104 15.612 9.75 15.5391C9.84896 15.4609 9.92969 15.3307 9.99219 15.1484L10.5625 13.4844H13.3516L13.9297 15.1484C14.0391 15.4818 14.2396 15.6484 14.5312 15.6484C14.7031 15.6484 14.8411 15.599 14.9453 15.5C15.0495 15.3958 15.1016 15.2656 15.1016 15.1094C15.1016 15 15.0755 14.8646 15.0234 14.7031L12.8281 8.80469C12.6771 8.39323 12.3854 8.1875 11.9531 8.1875C11.526 8.1875 11.237 8.39323 11.0859 8.80469L8.89844 14.7031C8.84115 14.8646 8.8125 15 8.8125 15.1094C8.8125 15.2708 8.86458 15.401 8.96875 15.5C9.07292 15.599 9.21354 15.6484 9.39062 15.6484ZM10.875 12.5469L11.9141 9.52344H12L13.0391 12.5469H10.875Z" fill="#202939"/>
</svg>